<svg xmlns="http://www.w3.org/2000/svg" viewBox="0 -0.5 24 31" shape-rendering="crispEdges">

<path stroke="#000000" d="M6 0h14M5 1h1M20 1h1M5 2h1M21 2h1M6 3h1M21 3h1M4 4h14M21 4h1M3 5h1M18 5h1M21 5h1M3 6h1M18 6h1M21 6h1M3 7h1M18 7h1M21 7h1M3 8h1M18 8h1M20 8h2M3 9h1M18 9h2M22 9h1M2 10h6M12 10h7M23 10h1M1 11h2M7 11h1M12 11h1M19 11h1M22 11h1M0 12h1M2 12h1M4 12h5M11 12h6M20 12h2M1 13h2M4 13h1M9 13h2M16 13h1M21 13h1M2 14h1M4 14h1M16 14h1M21 14h1M2 15h1M4 15h1M16 15h1M21 15h1M2 16h1M4 16h1M16 16h1M21 16h1M2 17h1M4 17h1M16 17h1M21 17h1M2 18h1M4 18h1M16 18h1M21 18h1M2 19h1M4 19h1M16 19h1M21 19h1M2 20h1M4 20h1M16 20h1M21 20h1M2 21h1M4 21h1M16 21h1M21 21h1M2 22h1M4 22h1M16 22h1M21 22h1M2 23h1M4 23h1M16 23h1M21 23h1M2 24h1M4 24h1M16 24h1M21 24h1M2 25h1M4 25h1M16 25h1M21 25h1M2 26h1M4 26h1M16 26h1M21 26h1M2 27h1M4 27h1M16 27h1M21 27h1M2 28h1M4 28h13M20 28h1M2 29h1M19 29h1M2 30h17" />
<path stroke="#ffffff" d="M6 1h14M4 5h14M4 6h2M7 6h8M16 6h2M4 7h1M8 7h6M17 7h1M4 8h1M8 8h6M17 8h1M4 9h2M7 9h8M16 9h2M9 10h3M10 11h2M18 11h1M18 12h1M18 13h1M18 14h1M18 15h1M18 16h1M18 17h1M18 18h1M18 19h1M18 20h1M18 21h1M18 22h1M18 23h1M18 24h1M18 25h1M18 26h1M18 27h1M18 28h1M18 29h1" />
<path stroke="#87888f" d="M6 2h15M18 4h1M19 5h1M19 6h1M19 7h1M19 8h1M20 9h2M19 10h2M19 12h1M19 13h2M19 14h2M19 15h2M19 16h2M19 17h2M19 18h2M19 19h2M19 20h2M19 21h2M19 22h2M19 23h2M19 24h2M19 25h2M19 26h2M19 27h2M19 28h1" />
<path stroke="#c0c7c8" d="M7 3h14M19 4h2M20 5h1M20 6h1M20 7h1M8 10h1M21 10h2M3 11h4M8 11h2M13 11h5M20 11h2M1 12h1M3 12h1M9 12h2M17 12h1M3 13h1M17 13h1M3 14h1M17 14h1M3 15h1M17 15h1M3 16h1M17 16h1M3 17h1M17 17h1M3 18h1M17 18h1M3 19h1M17 19h1M3 20h1M17 20h1M3 21h1M17 21h1M3 22h1M17 22h1M3 23h1M17 23h1M3 24h1M17 24h1M3 25h1M17 25h1M3 26h1M17 26h1M3 27h1M17 27h1M3 28h1M17 28h1M3 29h15" />
<path stroke="#a80057" d="M6 6h1M15 6h1M5 7h3M14 7h3M5 8h3M14 8h3M6 9h1M15 9h1" />
<path stroke="#0000a8" d="M5 13h4M11 13h5M5 14h11M5 15h11M5 16h11M5 17h11M5 18h11M5 19h11M5 20h11M5 21h11M5 22h11M5 23h11M5 24h11M5 25h11M5 26h11M5 27h11" />
</svg>